<mxfile host="app.diagrams.net" modified="2023-10-12T16:01:14.119Z" agent="Mozilla/5.0 (Windows NT 10.0; Win64; x64) AppleWebKit/537.36 (KHTML, like Gecko) Chrome/116.0.5845.967 YaBrowser/23.9.1.967 Yowser/2.5 Safari/537.36" etag="2fCD-xNWAeY-n7tH8--p" version="22.0.4" type="google">
  <diagram id="ML9wtyINVgdUHEs43sJc" name="Страница 1">
    <mxGraphModel grid="0" page="0" gridSize="10" guides="1" tooltips="1" connect="1" arrows="1" fold="1" pageScale="1" pageWidth="827" pageHeight="1169" math="0" shadow="0">
      <root>
        <mxCell id="0" />
        <mxCell id="1" parent="0" />
        <mxCell id="5TSkszLbsJgpG2_HzwPA-1" value="&lt;span style=&quot;color: rgb(0 , 0 , 0) ; font-family: &amp;#34;roboto&amp;#34; , &amp;#34;robotodraft&amp;#34; , &amp;#34;helvetica&amp;#34; , &amp;#34;arial&amp;#34; , sans-serif ; font-size: 13px ; background-color: rgb(255 , 255 , 255)&quot;&gt;Проектирование электронной системы учёта оценок студентов.&lt;/span&gt;" style="text;html=1;strokeColor=none;fillColor=none;align=center;verticalAlign=middle;whiteSpace=wrap;rounded=0;" vertex="1" parent="1">
          <mxGeometry x="230" y="10" width="330" height="30" as="geometry" />
        </mxCell>
        <mxCell id="ejWC1JuvyuzGTiNb9Fb2-1" value="Преподаватель" style="shape=umlActor;verticalLabelPosition=bottom;verticalAlign=top;html=1;outlineConnect=0;" vertex="1" parent="1">
          <mxGeometry x="200" y="330" width="30" height="60" as="geometry" />
        </mxCell>
        <mxCell id="ejWC1JuvyuzGTiNb9Fb2-2" value="Студент" style="shape=umlActor;verticalLabelPosition=bottom;verticalAlign=top;html=1;outlineConnect=0;" vertex="1" parent="1">
          <mxGeometry x="535.5" y="640" width="30" height="60" as="geometry" />
        </mxCell>
        <mxCell id="ejWC1JuvyuzGTiNb9Fb2-3" value="Работник администрации" style="shape=umlActor;verticalLabelPosition=bottom;verticalAlign=top;html=1;outlineConnect=0;" vertex="1" parent="1">
          <mxGeometry x="390" y="970" width="30" height="60" as="geometry" />
        </mxCell>
        <mxCell id="ejWC1JuvyuzGTiNb9Fb2-4" value="Добавить курс в расписание" style="ellipse;whiteSpace=wrap;html=1;" vertex="1" parent="1">
          <mxGeometry x="172" y="970" width="90" height="60" as="geometry" />
        </mxCell>
        <mxCell id="ejWC1JuvyuzGTiNb9Fb2-5" value="Добавить студентов на курс" style="ellipse;whiteSpace=wrap;html=1;" vertex="1" parent="1">
          <mxGeometry x="21" y="962.5" width="90" height="60" as="geometry" />
        </mxCell>
        <mxCell id="ejWC1JuvyuzGTiNb9Fb2-6" value="Добавить преподавателя" style="ellipse;whiteSpace=wrap;html=1;" vertex="1" parent="1">
          <mxGeometry x="82" y="895" width="90" height="60" as="geometry" />
        </mxCell>
        <mxCell id="ejWC1JuvyuzGTiNb9Fb2-7" value="Добавить на курс задания" style="ellipse;whiteSpace=wrap;html=1;" vertex="1" parent="1">
          <mxGeometry x="290" y="320" width="90" height="60" as="geometry" />
        </mxCell>
        <mxCell id="ejWC1JuvyuzGTiNb9Fb2-8" value="Добавить описание задания" style="ellipse;whiteSpace=wrap;html=1;" vertex="1" parent="1">
          <mxGeometry x="350.5" y="235" width="90" height="60" as="geometry" />
        </mxCell>
        <mxCell id="ejWC1JuvyuzGTiNb9Fb2-9" value="Добавить баллы оценивания" style="ellipse;whiteSpace=wrap;html=1;" vertex="1" parent="1">
          <mxGeometry x="441" y="282.5" width="90" height="60" as="geometry" />
        </mxCell>
        <mxCell id="ejWC1JuvyuzGTiNb9Fb2-10" value="Выполнить задание" style="ellipse;whiteSpace=wrap;html=1;" vertex="1" parent="1">
          <mxGeometry x="720" y="690" width="90" height="60" as="geometry" />
        </mxCell>
        <mxCell id="ejWC1JuvyuzGTiNb9Fb2-11" value="Сдать задание" style="ellipse;whiteSpace=wrap;html=1;" vertex="1" parent="1">
          <mxGeometry x="710" y="762.5" width="90" height="60" as="geometry" />
        </mxCell>
        <mxCell id="ejWC1JuvyuzGTiNb9Fb2-12" value="Оценить выполнение заданий" style="ellipse;whiteSpace=wrap;html=1;" vertex="1" parent="1">
          <mxGeometry x="230" y="240" width="90" height="60" as="geometry" />
        </mxCell>
        <mxCell id="ejWC1JuvyuzGTiNb9Fb2-13" value="Проверить отчет" style="ellipse;whiteSpace=wrap;html=1;" vertex="1" parent="1">
          <mxGeometry x="468" y="917.5" width="90" height="60" as="geometry" />
        </mxCell>
        <mxCell id="ejWC1JuvyuzGTiNb9Fb2-14" value="Составить отчет оценок за курс" style="ellipse;whiteSpace=wrap;html=1;" vertex="1" parent="1">
          <mxGeometry x="290" y="410" width="90" height="60" as="geometry" />
        </mxCell>
        <mxCell id="ejWC1JuvyuzGTiNb9Fb2-15" value="Внести баллы за все задания" style="ellipse;whiteSpace=wrap;html=1;" vertex="1" parent="1">
          <mxGeometry x="450.5" y="420" width="90" height="60" as="geometry" />
        </mxCell>
        <mxCell id="ejWC1JuvyuzGTiNb9Fb2-16" value="Посетить лекцию" style="ellipse;whiteSpace=wrap;html=1;" vertex="1" parent="1">
          <mxGeometry x="560" y="790" width="90" height="60" as="geometry" />
        </mxCell>
        <mxCell id="ejWC1JuvyuzGTiNb9Fb2-17" value="Провести лекцию" style="ellipse;whiteSpace=wrap;html=1;" vertex="1" parent="1">
          <mxGeometry x="130" y="247.5" width="90" height="60" as="geometry" />
        </mxCell>
        <mxCell id="ejWC1JuvyuzGTiNb9Fb2-18" value="Отметить посещаемость" style="ellipse;whiteSpace=wrap;html=1;" vertex="1" parent="1">
          <mxGeometry x="241" y="160" width="90" height="60" as="geometry" />
        </mxCell>
        <mxCell id="ejWC1JuvyuzGTiNb9Fb2-19" value="Добавить баллы активности" style="ellipse;whiteSpace=wrap;html=1;" vertex="1" parent="1">
          <mxGeometry x="140" y="130" width="90" height="60" as="geometry" />
        </mxCell>
        <mxCell id="ejWC1JuvyuzGTiNb9Fb2-20" value="Ввнести посещаемость" style="ellipse;whiteSpace=wrap;html=1;" vertex="1" parent="1">
          <mxGeometry x="463.5" y="490" width="90" height="60" as="geometry" />
        </mxCell>
        <mxCell id="ejWC1JuvyuzGTiNb9Fb2-21" value="Добавить баллы активности" style="ellipse;whiteSpace=wrap;html=1;" vertex="1" parent="1">
          <mxGeometry x="373.5" y="510" width="90" height="60" as="geometry" />
        </mxCell>
        <mxCell id="ejWC1JuvyuzGTiNb9Fb2-22" value="" style="endArrow=none;html=1;rounded=0;curved=1;exitX=0.5;exitY=0.5;exitDx=0;exitDy=0;exitPerimeter=0;entryX=0;entryY=0.5;entryDx=0;entryDy=0;" edge="1" parent="1" source="ejWC1JuvyuzGTiNb9Fb2-1" target="ejWC1JuvyuzGTiNb9Fb2-7">
          <mxGeometry width="50" height="50" relative="1" as="geometry">
            <mxPoint x="510" y="410" as="sourcePoint" />
            <mxPoint x="560" y="360" as="targetPoint" />
          </mxGeometry>
        </mxCell>
        <mxCell id="ejWC1JuvyuzGTiNb9Fb2-23" value="" style="endArrow=none;html=1;rounded=0;curved=1;entryX=0.5;entryY=0.5;entryDx=0;entryDy=0;entryPerimeter=0;exitX=0.5;exitY=1;exitDx=0;exitDy=0;" edge="1" parent="1" source="ejWC1JuvyuzGTiNb9Fb2-12" target="ejWC1JuvyuzGTiNb9Fb2-1">
          <mxGeometry width="50" height="50" relative="1" as="geometry">
            <mxPoint x="510" y="410" as="sourcePoint" />
            <mxPoint x="560" y="360" as="targetPoint" />
          </mxGeometry>
        </mxCell>
        <mxCell id="ejWC1JuvyuzGTiNb9Fb2-24" value="" style="endArrow=none;html=1;rounded=0;curved=1;entryX=0.5;entryY=0.5;entryDx=0;entryDy=0;entryPerimeter=0;exitX=0.5;exitY=1;exitDx=0;exitDy=0;" edge="1" parent="1" source="ejWC1JuvyuzGTiNb9Fb2-17" target="ejWC1JuvyuzGTiNb9Fb2-1">
          <mxGeometry width="50" height="50" relative="1" as="geometry">
            <mxPoint x="510" y="410" as="sourcePoint" />
            <mxPoint x="560" y="360" as="targetPoint" />
          </mxGeometry>
        </mxCell>
        <mxCell id="ejWC1JuvyuzGTiNb9Fb2-25" value="" style="endArrow=none;html=1;rounded=0;curved=1;exitX=0.5;exitY=0.5;exitDx=0;exitDy=0;exitPerimeter=0;entryX=0;entryY=0;entryDx=0;entryDy=0;" edge="1" parent="1" source="ejWC1JuvyuzGTiNb9Fb2-1" target="ejWC1JuvyuzGTiNb9Fb2-14">
          <mxGeometry width="50" height="50" relative="1" as="geometry">
            <mxPoint x="510" y="400" as="sourcePoint" />
            <mxPoint x="560" y="350" as="targetPoint" />
          </mxGeometry>
        </mxCell>
        <mxCell id="ejWC1JuvyuzGTiNb9Fb2-26" value="" style="html=1;verticalAlign=bottom;labelBackgroundColor=none;endArrow=block;endFill=1;dashed=1;rounded=0;curved=1;exitX=1;exitY=0.5;exitDx=0;exitDy=0;entryX=0;entryY=0.5;entryDx=0;entryDy=0;" edge="1" parent="1" source="ejWC1JuvyuzGTiNb9Fb2-14" target="ejWC1JuvyuzGTiNb9Fb2-15">
          <mxGeometry width="160" relative="1" as="geometry">
            <mxPoint x="519" y="340" as="sourcePoint" />
            <mxPoint x="679" y="340" as="targetPoint" />
          </mxGeometry>
        </mxCell>
        <mxCell id="ejWC1JuvyuzGTiNb9Fb2-27" value="" style="html=1;verticalAlign=bottom;labelBackgroundColor=none;endArrow=block;endFill=1;dashed=1;rounded=0;curved=1;entryX=0;entryY=0;entryDx=0;entryDy=0;" edge="1" parent="1" source="ejWC1JuvyuzGTiNb9Fb2-14" target="ejWC1JuvyuzGTiNb9Fb2-20">
          <mxGeometry width="160" relative="1" as="geometry">
            <mxPoint x="519" y="340" as="sourcePoint" />
            <mxPoint x="679" y="340" as="targetPoint" />
          </mxGeometry>
        </mxCell>
        <mxCell id="ejWC1JuvyuzGTiNb9Fb2-28" value="" style="html=1;verticalAlign=bottom;labelBackgroundColor=none;endArrow=block;endFill=1;dashed=1;rounded=0;curved=1;exitX=0.728;exitY=0.956;exitDx=0;exitDy=0;entryX=0;entryY=0;entryDx=0;entryDy=0;exitPerimeter=0;" edge="1" parent="1" source="ejWC1JuvyuzGTiNb9Fb2-14" target="ejWC1JuvyuzGTiNb9Fb2-21">
          <mxGeometry width="160" relative="1" as="geometry">
            <mxPoint x="519" y="340" as="sourcePoint" />
            <mxPoint x="679" y="340" as="targetPoint" />
          </mxGeometry>
        </mxCell>
        <mxCell id="ejWC1JuvyuzGTiNb9Fb2-29" value="" style="html=1;verticalAlign=bottom;labelBackgroundColor=none;endArrow=block;endFill=1;dashed=1;rounded=0;curved=1;exitX=1;exitY=0;exitDx=0;exitDy=0;entryX=0.5;entryY=1;entryDx=0;entryDy=0;" edge="1" parent="1" source="ejWC1JuvyuzGTiNb9Fb2-7" target="ejWC1JuvyuzGTiNb9Fb2-8">
          <mxGeometry width="160" relative="1" as="geometry">
            <mxPoint x="490" y="350" as="sourcePoint" />
            <mxPoint x="650" y="350" as="targetPoint" />
          </mxGeometry>
        </mxCell>
        <mxCell id="ejWC1JuvyuzGTiNb9Fb2-30" value="" style="html=1;verticalAlign=bottom;labelBackgroundColor=none;endArrow=block;endFill=1;dashed=1;rounded=0;curved=1;exitX=1;exitY=0.5;exitDx=0;exitDy=0;entryX=0;entryY=0.5;entryDx=0;entryDy=0;" edge="1" parent="1" source="ejWC1JuvyuzGTiNb9Fb2-7" target="ejWC1JuvyuzGTiNb9Fb2-9">
          <mxGeometry width="160" relative="1" as="geometry">
            <mxPoint x="490" y="350" as="sourcePoint" />
            <mxPoint x="650" y="350" as="targetPoint" />
          </mxGeometry>
        </mxCell>
        <mxCell id="ejWC1JuvyuzGTiNb9Fb2-31" value="Выполнить задание на лекции" style="ellipse;whiteSpace=wrap;html=1;" vertex="1" parent="1">
          <mxGeometry x="690" y="830" width="90" height="60" as="geometry" />
        </mxCell>
        <mxCell id="ejWC1JuvyuzGTiNb9Fb2-32" value="" style="html=1;verticalAlign=bottom;labelBackgroundColor=none;endArrow=block;endFill=1;dashed=1;rounded=0;curved=1;exitX=0;exitY=0.5;exitDx=0;exitDy=0;entryX=1;entryY=1;entryDx=0;entryDy=0;" edge="1" parent="1" source="ejWC1JuvyuzGTiNb9Fb2-31" target="ejWC1JuvyuzGTiNb9Fb2-16">
          <mxGeometry width="160" relative="1" as="geometry">
            <mxPoint x="350" y="765" as="sourcePoint" />
            <mxPoint x="470" y="910" as="targetPoint" />
          </mxGeometry>
        </mxCell>
        <mxCell id="ejWC1JuvyuzGTiNb9Fb2-33" value="Подтвердить запись на курс" style="ellipse;whiteSpace=wrap;html=1;" vertex="1" parent="1">
          <mxGeometry x="641" y="630" width="90" height="60" as="geometry" />
        </mxCell>
        <mxCell id="ejWC1JuvyuzGTiNb9Fb2-34" value="" style="endArrow=none;html=1;rounded=0;curved=1;exitX=0.5;exitY=0.5;exitDx=0;exitDy=0;exitPerimeter=0;entryX=0;entryY=0.5;entryDx=0;entryDy=0;" edge="1" parent="1" source="ejWC1JuvyuzGTiNb9Fb2-2" target="ejWC1JuvyuzGTiNb9Fb2-33">
          <mxGeometry width="50" height="50" relative="1" as="geometry">
            <mxPoint x="485.5" y="870" as="sourcePoint" />
            <mxPoint x="535.5" y="820" as="targetPoint" />
          </mxGeometry>
        </mxCell>
        <mxCell id="ejWC1JuvyuzGTiNb9Fb2-35" value="Отменить запись на курс" style="ellipse;whiteSpace=wrap;html=1;" vertex="1" parent="1">
          <mxGeometry x="580" y="570" width="90" height="60" as="geometry" />
        </mxCell>
        <mxCell id="ejWC1JuvyuzGTiNb9Fb2-36" value="" style="endArrow=none;html=1;rounded=0;curved=1;entryX=0.5;entryY=0.5;entryDx=0;entryDy=0;entryPerimeter=0;exitX=0;exitY=1;exitDx=0;exitDy=0;" edge="1" parent="1" source="ejWC1JuvyuzGTiNb9Fb2-35" target="ejWC1JuvyuzGTiNb9Fb2-2">
          <mxGeometry width="50" height="50" relative="1" as="geometry">
            <mxPoint x="485.5" y="860" as="sourcePoint" />
            <mxPoint x="535.5" y="810" as="targetPoint" />
          </mxGeometry>
        </mxCell>
        <mxCell id="ejWC1JuvyuzGTiNb9Fb2-38" value="" style="html=1;verticalAlign=bottom;labelBackgroundColor=none;endArrow=block;endFill=1;dashed=1;rounded=0;curved=1;exitX=0;exitY=0;exitDx=0;exitDy=0;entryX=1;entryY=1;entryDx=0;entryDy=0;" edge="1" parent="1" source="ejWC1JuvyuzGTiNb9Fb2-4" target="ejWC1JuvyuzGTiNb9Fb2-6">
          <mxGeometry width="160" relative="1" as="geometry">
            <mxPoint x="280" y="872.5" as="sourcePoint" />
            <mxPoint x="440" y="872.5" as="targetPoint" />
          </mxGeometry>
        </mxCell>
        <mxCell id="ejWC1JuvyuzGTiNb9Fb2-39" value="" style="html=1;verticalAlign=bottom;labelBackgroundColor=none;endArrow=block;endFill=1;dashed=1;rounded=0;curved=1;exitX=0;exitY=0.5;exitDx=0;exitDy=0;entryX=1;entryY=0.5;entryDx=0;entryDy=0;" edge="1" parent="1" source="ejWC1JuvyuzGTiNb9Fb2-4" target="ejWC1JuvyuzGTiNb9Fb2-5">
          <mxGeometry width="160" relative="1" as="geometry">
            <mxPoint x="280" y="872.5" as="sourcePoint" />
            <mxPoint x="440" y="872.5" as="targetPoint" />
          </mxGeometry>
        </mxCell>
        <mxCell id="ejWC1JuvyuzGTiNb9Fb2-40" value="" style="endArrow=none;html=1;rounded=0;curved=1;exitX=0.5;exitY=0.5;exitDx=0;exitDy=0;exitPerimeter=0;entryX=0;entryY=1;entryDx=0;entryDy=0;" edge="1" parent="1" source="ejWC1JuvyuzGTiNb9Fb2-3" target="ejWC1JuvyuzGTiNb9Fb2-13">
          <mxGeometry width="50" height="50" relative="1" as="geometry">
            <mxPoint x="420" y="840" as="sourcePoint" />
            <mxPoint x="470" y="790" as="targetPoint" />
          </mxGeometry>
        </mxCell>
        <mxCell id="ejWC1JuvyuzGTiNb9Fb2-41" value="Внести баллы в базу данных" style="ellipse;whiteSpace=wrap;html=1;" vertex="1" parent="1">
          <mxGeometry x="490" y="990" width="90" height="60" as="geometry" />
        </mxCell>
        <mxCell id="ejWC1JuvyuzGTiNb9Fb2-42" value="" style="endArrow=none;html=1;rounded=0;curved=1;exitX=0.5;exitY=0.5;exitDx=0;exitDy=0;exitPerimeter=0;entryX=0;entryY=0.5;entryDx=0;entryDy=0;" edge="1" parent="1" source="ejWC1JuvyuzGTiNb9Fb2-3" target="ejWC1JuvyuzGTiNb9Fb2-41">
          <mxGeometry width="50" height="50" relative="1" as="geometry">
            <mxPoint x="420" y="830" as="sourcePoint" />
            <mxPoint x="470" y="780" as="targetPoint" />
          </mxGeometry>
        </mxCell>
        <mxCell id="ejWC1JuvyuzGTiNb9Fb2-43" value="Пройти курс" style="ellipse;whiteSpace=wrap;html=1;" vertex="1" parent="1">
          <mxGeometry x="590" y="700" width="90" height="60" as="geometry" />
        </mxCell>
        <mxCell id="ejWC1JuvyuzGTiNb9Fb2-44" value="" style="endArrow=none;html=1;rounded=0;curved=1;entryX=0.5;entryY=0.5;entryDx=0;entryDy=0;entryPerimeter=0;exitX=0;exitY=0;exitDx=0;exitDy=0;" edge="1" parent="1" source="ejWC1JuvyuzGTiNb9Fb2-43" target="ejWC1JuvyuzGTiNb9Fb2-2">
          <mxGeometry width="50" height="50" relative="1" as="geometry">
            <mxPoint x="715.5" y="840" as="sourcePoint" />
            <mxPoint x="765.5" y="790" as="targetPoint" />
          </mxGeometry>
        </mxCell>
        <mxCell id="ejWC1JuvyuzGTiNb9Fb2-45" value="" style="html=1;verticalAlign=bottom;labelBackgroundColor=none;endArrow=block;endFill=1;dashed=1;rounded=0;curved=1;exitX=0;exitY=0.5;exitDx=0;exitDy=0;entryX=1;entryY=0.5;entryDx=0;entryDy=0;" edge="1" parent="1" source="ejWC1JuvyuzGTiNb9Fb2-10" target="ejWC1JuvyuzGTiNb9Fb2-43">
          <mxGeometry width="160" relative="1" as="geometry">
            <mxPoint x="820" y="795" as="sourcePoint" />
            <mxPoint x="660" y="795" as="targetPoint" />
          </mxGeometry>
        </mxCell>
        <mxCell id="ejWC1JuvyuzGTiNb9Fb2-46" value="" style="html=1;verticalAlign=bottom;labelBackgroundColor=none;endArrow=block;endFill=1;dashed=1;rounded=0;curved=1;exitX=0;exitY=0;exitDx=0;exitDy=0;entryX=1;entryY=1;entryDx=0;entryDy=0;" edge="1" parent="1" source="ejWC1JuvyuzGTiNb9Fb2-11" target="ejWC1JuvyuzGTiNb9Fb2-43">
          <mxGeometry width="160" relative="1" as="geometry">
            <mxPoint x="820" y="795" as="sourcePoint" />
            <mxPoint x="660" y="795" as="targetPoint" />
          </mxGeometry>
        </mxCell>
        <mxCell id="ejWC1JuvyuzGTiNb9Fb2-47" value="" style="html=1;verticalAlign=bottom;labelBackgroundColor=none;endArrow=block;endFill=1;dashed=1;rounded=0;curved=1;exitX=0.5;exitY=0;exitDx=0;exitDy=0;entryX=0;entryY=1;entryDx=0;entryDy=0;" edge="1" parent="1" source="ejWC1JuvyuzGTiNb9Fb2-16" target="ejWC1JuvyuzGTiNb9Fb2-43">
          <mxGeometry width="160" relative="1" as="geometry">
            <mxPoint x="603.1801948466054" y="953.7867965644036" as="sourcePoint" />
            <mxPoint x="545" y="810" as="targetPoint" />
          </mxGeometry>
        </mxCell>
        <mxCell id="ejWC1JuvyuzGTiNb9Fb2-48" value="" style="html=1;verticalAlign=bottom;labelBackgroundColor=none;endArrow=block;endFill=1;dashed=1;rounded=0;curved=1;exitX=1;exitY=0;exitDx=0;exitDy=0;entryX=0;entryY=1;entryDx=0;entryDy=0;" edge="1" parent="1" source="ejWC1JuvyuzGTiNb9Fb2-17" target="ejWC1JuvyuzGTiNb9Fb2-18">
          <mxGeometry width="160" relative="1" as="geometry">
            <mxPoint x="380" y="330" as="sourcePoint" />
            <mxPoint x="540" y="330" as="targetPoint" />
          </mxGeometry>
        </mxCell>
        <mxCell id="ejWC1JuvyuzGTiNb9Fb2-49" value="" style="html=1;verticalAlign=bottom;labelBackgroundColor=none;endArrow=block;endFill=1;dashed=1;rounded=0;curved=1;entryX=0.5;entryY=1;entryDx=0;entryDy=0;exitX=0.5;exitY=0;exitDx=0;exitDy=0;" edge="1" parent="1" source="ejWC1JuvyuzGTiNb9Fb2-17" target="ejWC1JuvyuzGTiNb9Fb2-19">
          <mxGeometry width="160" relative="1" as="geometry">
            <mxPoint x="380" y="330" as="sourcePoint" />
            <mxPoint x="540" y="330" as="targetPoint" />
          </mxGeometry>
        </mxCell>
        <mxCell id="ejWC1JuvyuzGTiNb9Fb2-50" value="&quot;extend&quot;" style="text;html=1;strokeColor=none;fillColor=none;align=center;verticalAlign=middle;whiteSpace=wrap;rounded=0;fontSize=12;" vertex="1" parent="1">
          <mxGeometry x="670" y="700" width="51" height="15" as="geometry" />
        </mxCell>
        <mxCell id="ejWC1JuvyuzGTiNb9Fb2-51" value="&quot;extend&quot;" style="text;html=1;strokeColor=none;fillColor=none;align=center;verticalAlign=middle;whiteSpace=wrap;rounded=0;fontSize=12;" vertex="1" parent="1">
          <mxGeometry x="680" y="747.5" width="51" height="15" as="geometry" />
        </mxCell>
        <mxCell id="ejWC1JuvyuzGTiNb9Fb2-52" value="&quot;include&quot;" style="text;html=1;strokeColor=none;fillColor=none;align=center;verticalAlign=middle;whiteSpace=wrap;rounded=0;fontSize=12;" vertex="1" parent="1">
          <mxGeometry x="199.5" y="220" width="51" height="15" as="geometry" />
        </mxCell>
        <mxCell id="ejWC1JuvyuzGTiNb9Fb2-53" value="&quot;include&quot;" style="text;html=1;strokeColor=none;fillColor=none;align=center;verticalAlign=middle;whiteSpace=wrap;rounded=0;fontSize=12;" vertex="1" parent="1">
          <mxGeometry x="149" y="205" width="51" height="15" as="geometry" />
        </mxCell>
        <mxCell id="ejWC1JuvyuzGTiNb9Fb2-54" value="&quot;include&quot;" style="text;html=1;strokeColor=none;fillColor=none;align=center;verticalAlign=middle;whiteSpace=wrap;rounded=0;fontSize=12;" vertex="1" parent="1">
          <mxGeometry x="369.5" y="305" width="51" height="15" as="geometry" />
        </mxCell>
        <mxCell id="ejWC1JuvyuzGTiNb9Fb2-55" value="&quot;include&quot;" style="text;html=1;strokeColor=none;fillColor=none;align=center;verticalAlign=middle;whiteSpace=wrap;rounded=0;fontSize=12;" vertex="1" parent="1">
          <mxGeometry x="399" y="327.5" width="51" height="15" as="geometry" />
        </mxCell>
        <mxCell id="ejWC1JuvyuzGTiNb9Fb2-56" value="&quot;include&quot;" style="text;html=1;strokeColor=none;fillColor=none;align=center;verticalAlign=middle;whiteSpace=wrap;rounded=0;fontSize=12;" vertex="1" parent="1">
          <mxGeometry x="390" y="442.5" width="51" height="15" as="geometry" />
        </mxCell>
        <mxCell id="ejWC1JuvyuzGTiNb9Fb2-57" value="&quot;include&quot;" style="text;html=1;strokeColor=none;fillColor=none;align=center;verticalAlign=middle;whiteSpace=wrap;rounded=0;fontSize=12;" vertex="1" parent="1">
          <mxGeometry x="389.5" y="465" width="51" height="15" as="geometry" />
        </mxCell>
        <mxCell id="ejWC1JuvyuzGTiNb9Fb2-58" value="&quot;include&quot;" style="text;html=1;strokeColor=none;fillColor=none;align=center;verticalAlign=middle;whiteSpace=wrap;rounded=0;fontSize=12;" vertex="1" parent="1">
          <mxGeometry x="373.5" y="495" width="51" height="15" as="geometry" />
        </mxCell>
        <mxCell id="ejWC1JuvyuzGTiNb9Fb2-61" value="&quot;include&quot;" style="text;html=1;strokeColor=none;fillColor=none;align=center;verticalAlign=middle;whiteSpace=wrap;rounded=0;fontSize=12;" vertex="1" parent="1">
          <mxGeometry x="149.5" y="955" width="51" height="15" as="geometry" />
        </mxCell>
        <mxCell id="ejWC1JuvyuzGTiNb9Fb2-62" value="&quot;include&quot;" style="text;html=1;strokeColor=none;fillColor=none;align=center;verticalAlign=middle;whiteSpace=wrap;rounded=0;fontSize=12;" vertex="1" parent="1">
          <mxGeometry x="121" y="982.5" width="51" height="15" as="geometry" />
        </mxCell>
        <mxCell id="ejWC1JuvyuzGTiNb9Fb2-64" value="Добавить сроки сдачи" style="ellipse;whiteSpace=wrap;html=1;" vertex="1" parent="1">
          <mxGeometry x="440" y="350" width="90" height="60" as="geometry" />
        </mxCell>
        <mxCell id="ejWC1JuvyuzGTiNb9Fb2-65" value="Выложить лекцию на портал после завершения" style="ellipse;whiteSpace=wrap;html=1;" vertex="1" parent="1">
          <mxGeometry x="30" y="160" width="90" height="60" as="geometry" />
        </mxCell>
        <mxCell id="ejWC1JuvyuzGTiNb9Fb2-66" value="Выложить текст лекции" style="ellipse;whiteSpace=wrap;html=1;" vertex="1" parent="1">
          <mxGeometry y="247.5" width="90" height="60" as="geometry" />
        </mxCell>
        <mxCell id="ejWC1JuvyuzGTiNb9Fb2-67" value="" style="html=1;verticalAlign=bottom;labelBackgroundColor=none;endArrow=block;endFill=1;dashed=1;rounded=0;curved=1;entryX=1;entryY=0.5;entryDx=0;entryDy=0;exitX=0;exitY=0.5;exitDx=0;exitDy=0;" edge="1" parent="1" source="ejWC1JuvyuzGTiNb9Fb2-17" target="ejWC1JuvyuzGTiNb9Fb2-66">
          <mxGeometry width="160" relative="1" as="geometry">
            <mxPoint x="185" y="257.5" as="sourcePoint" />
            <mxPoint x="195" y="200" as="targetPoint" />
          </mxGeometry>
        </mxCell>
        <mxCell id="ejWC1JuvyuzGTiNb9Fb2-68" value="" style="html=1;verticalAlign=bottom;labelBackgroundColor=none;endArrow=block;endFill=1;dashed=1;rounded=0;curved=1;entryX=1;entryY=1;entryDx=0;entryDy=0;exitX=0;exitY=0;exitDx=0;exitDy=0;" edge="1" parent="1" source="ejWC1JuvyuzGTiNb9Fb2-17" target="ejWC1JuvyuzGTiNb9Fb2-65">
          <mxGeometry width="160" relative="1" as="geometry">
            <mxPoint x="140.0000000000016" y="287.5" as="sourcePoint" />
            <mxPoint x="99.99999999999818" y="287.5" as="targetPoint" />
          </mxGeometry>
        </mxCell>
        <mxCell id="ejWC1JuvyuzGTiNb9Fb2-69" value="&quot;include&quot;" style="text;html=1;strokeColor=none;fillColor=none;align=center;verticalAlign=middle;whiteSpace=wrap;rounded=0;fontSize=12;" vertex="1" parent="1">
          <mxGeometry x="110" y="232.5" width="51" height="15" as="geometry" />
        </mxCell>
        <mxCell id="ejWC1JuvyuzGTiNb9Fb2-70" value="&quot;include&quot;" style="text;html=1;strokeColor=none;fillColor=none;align=center;verticalAlign=middle;whiteSpace=wrap;rounded=0;fontSize=12;" vertex="1" parent="1">
          <mxGeometry x="79" y="285" width="51" height="15" as="geometry" />
        </mxCell>
        <mxCell id="ejWC1JuvyuzGTiNb9Fb2-71" value="" style="html=1;verticalAlign=bottom;labelBackgroundColor=none;endArrow=block;endFill=1;dashed=1;rounded=0;curved=1;exitX=1;exitY=0.5;exitDx=0;exitDy=0;entryX=0;entryY=0;entryDx=0;entryDy=0;" edge="1" parent="1" source="ejWC1JuvyuzGTiNb9Fb2-7" target="ejWC1JuvyuzGTiNb9Fb2-64">
          <mxGeometry width="160" relative="1" as="geometry">
            <mxPoint x="390" y="360" as="sourcePoint" />
            <mxPoint x="455.49999999999704" y="340" as="targetPoint" />
          </mxGeometry>
        </mxCell>
        <mxCell id="ejWC1JuvyuzGTiNb9Fb2-72" value="&quot;include&quot;" style="text;html=1;strokeColor=none;fillColor=none;align=center;verticalAlign=middle;whiteSpace=wrap;rounded=0;fontSize=12;" vertex="1" parent="1">
          <mxGeometry x="388" y="350" width="51" height="15" as="geometry" />
        </mxCell>
        <mxCell id="ejWC1JuvyuzGTiNb9Fb2-73" value="Добавить на страницу курса литературу" style="ellipse;whiteSpace=wrap;html=1;" vertex="1" parent="1">
          <mxGeometry x="71" y="320" width="90" height="60" as="geometry" />
        </mxCell>
        <mxCell id="ejWC1JuvyuzGTiNb9Fb2-74" value="Открыть чат со студентами" style="ellipse;whiteSpace=wrap;html=1;" vertex="1" parent="1">
          <mxGeometry x="90" y="410" width="90" height="60" as="geometry" />
        </mxCell>
        <mxCell id="ejWC1JuvyuzGTiNb9Fb2-75" value="Сделать рассылку студентам" style="ellipse;whiteSpace=wrap;html=1;" vertex="1" parent="1">
          <mxGeometry y="472.5" width="90" height="60" as="geometry" />
        </mxCell>
        <mxCell id="ejWC1JuvyuzGTiNb9Fb2-76" value="Прикрепить медиафайлы" style="ellipse;whiteSpace=wrap;html=1;" vertex="1" parent="1">
          <mxGeometry x="90" y="525" width="90" height="60" as="geometry" />
        </mxCell>
        <mxCell id="ejWC1JuvyuzGTiNb9Fb2-77" value="Отправить сообщение" style="ellipse;whiteSpace=wrap;html=1;" vertex="1" parent="1">
          <mxGeometry x="180" y="480" width="90" height="60" as="geometry" />
        </mxCell>
        <mxCell id="ejWC1JuvyuzGTiNb9Fb2-78" value="" style="endArrow=none;html=1;rounded=0;curved=1;exitX=1;exitY=0.5;exitDx=0;exitDy=0;entryX=0.5;entryY=0.5;entryDx=0;entryDy=0;entryPerimeter=0;" edge="1" parent="1" source="ejWC1JuvyuzGTiNb9Fb2-73" target="ejWC1JuvyuzGTiNb9Fb2-1">
          <mxGeometry width="50" height="50" relative="1" as="geometry">
            <mxPoint x="225" y="370" as="sourcePoint" />
            <mxPoint x="313.18019484660545" y="428.78679656440363" as="targetPoint" />
          </mxGeometry>
        </mxCell>
        <mxCell id="ejWC1JuvyuzGTiNb9Fb2-79" value="" style="endArrow=none;html=1;rounded=0;curved=1;exitX=1;exitY=0;exitDx=0;exitDy=0;entryX=0.5;entryY=0.5;entryDx=0;entryDy=0;entryPerimeter=0;" edge="1" parent="1" source="ejWC1JuvyuzGTiNb9Fb2-74" target="ejWC1JuvyuzGTiNb9Fb2-1">
          <mxGeometry width="50" height="50" relative="1" as="geometry">
            <mxPoint x="171" y="360" as="sourcePoint" />
            <mxPoint x="225" y="370" as="targetPoint" />
          </mxGeometry>
        </mxCell>
        <mxCell id="ejWC1JuvyuzGTiNb9Fb2-80" value="" style="html=1;verticalAlign=bottom;labelBackgroundColor=none;endArrow=block;endFill=1;dashed=1;rounded=0;curved=1;entryX=0;entryY=1;entryDx=0;entryDy=0;exitX=1;exitY=0;exitDx=0;exitDy=0;" edge="1" parent="1" source="ejWC1JuvyuzGTiNb9Fb2-75" target="ejWC1JuvyuzGTiNb9Fb2-74">
          <mxGeometry width="160" relative="1" as="geometry">
            <mxPoint x="99.99999999999818" y="287.5" as="sourcePoint" />
            <mxPoint x="140.0000000000016" y="287.5" as="targetPoint" />
          </mxGeometry>
        </mxCell>
        <mxCell id="ejWC1JuvyuzGTiNb9Fb2-81" value="" style="html=1;verticalAlign=bottom;labelBackgroundColor=none;endArrow=block;endFill=1;dashed=1;rounded=0;curved=1;entryX=0.5;entryY=1;entryDx=0;entryDy=0;exitX=0.5;exitY=0;exitDx=0;exitDy=0;" edge="1" parent="1" source="ejWC1JuvyuzGTiNb9Fb2-76" target="ejWC1JuvyuzGTiNb9Fb2-74">
          <mxGeometry width="160" relative="1" as="geometry">
            <mxPoint x="86.8198051533924" y="491.286796564405" as="sourcePoint" />
            <mxPoint x="113.18019484660545" y="471.21320343559626" as="targetPoint" />
          </mxGeometry>
        </mxCell>
        <mxCell id="ejWC1JuvyuzGTiNb9Fb2-82" value="" style="html=1;verticalAlign=bottom;labelBackgroundColor=none;endArrow=block;endFill=1;dashed=1;rounded=0;curved=1;entryX=1;entryY=1;entryDx=0;entryDy=0;exitX=0;exitY=0;exitDx=0;exitDy=0;" edge="1" parent="1" source="ejWC1JuvyuzGTiNb9Fb2-77" target="ejWC1JuvyuzGTiNb9Fb2-74">
          <mxGeometry width="160" relative="1" as="geometry">
            <mxPoint x="145" y="535" as="sourcePoint" />
            <mxPoint x="145" y="480" as="targetPoint" />
          </mxGeometry>
        </mxCell>
        <mxCell id="ejWC1JuvyuzGTiNb9Fb2-83" value="&quot;extend&quot;" style="text;html=1;strokeColor=none;fillColor=none;align=center;verticalAlign=middle;whiteSpace=wrap;rounded=0;fontSize=12;" vertex="1" parent="1">
          <mxGeometry x="180" y="465" width="51" height="15" as="geometry" />
        </mxCell>
        <mxCell id="ejWC1JuvyuzGTiNb9Fb2-84" value="&quot;extend&quot;" style="text;html=1;strokeColor=none;fillColor=none;align=center;verticalAlign=middle;whiteSpace=wrap;rounded=0;fontSize=12;" vertex="1" parent="1">
          <mxGeometry x="110" y="495" width="51" height="15" as="geometry" />
        </mxCell>
        <mxCell id="ejWC1JuvyuzGTiNb9Fb2-85" value="&quot;extend&quot;" style="text;html=1;strokeColor=none;fillColor=none;align=center;verticalAlign=middle;whiteSpace=wrap;rounded=0;fontSize=12;" vertex="1" parent="1">
          <mxGeometry x="59" y="465" width="51" height="15" as="geometry" />
        </mxCell>
        <mxCell id="ejWC1JuvyuzGTiNb9Fb2-86" value="&quot;extend&quot;" style="text;html=1;strokeColor=none;fillColor=none;align=center;verticalAlign=middle;whiteSpace=wrap;rounded=0;fontSize=12;" vertex="1" parent="1">
          <mxGeometry x="599.5" y="762.5" width="51" height="15" as="geometry" />
        </mxCell>
        <mxCell id="ejWC1JuvyuzGTiNb9Fb2-87" value="&quot;extend&quot;" style="text;html=1;strokeColor=none;fillColor=none;align=center;verticalAlign=middle;whiteSpace=wrap;rounded=0;fontSize=12;" vertex="1" parent="1">
          <mxGeometry x="650.5" y="830" width="51" height="15" as="geometry" />
        </mxCell>
        <mxCell id="ejWC1JuvyuzGTiNb9Fb2-88" value="Написать сообщение в чат поддержки" style="ellipse;whiteSpace=wrap;html=1;" vertex="1" parent="1">
          <mxGeometry x="429" y="702.5" width="90" height="60" as="geometry" />
        </mxCell>
        <mxCell id="ejWC1JuvyuzGTiNb9Fb2-89" value="Прикрепить медиафайлы" style="ellipse;whiteSpace=wrap;html=1;" vertex="1" parent="1">
          <mxGeometry x="424.5" y="800" width="90" height="60" as="geometry" />
        </mxCell>
        <mxCell id="ejWC1JuvyuzGTiNb9Fb2-90" value="Ответить на рассылку" style="ellipse;whiteSpace=wrap;html=1;" vertex="1" parent="1">
          <mxGeometry x="310" y="750" width="90" height="60" as="geometry" />
        </mxCell>
        <mxCell id="ejWC1JuvyuzGTiNb9Fb2-91" value="" style="html=1;verticalAlign=bottom;labelBackgroundColor=none;endArrow=block;endFill=1;dashed=1;rounded=0;curved=1;exitX=0.5;exitY=0;exitDx=0;exitDy=0;entryX=0.5;entryY=1;entryDx=0;entryDy=0;" edge="1" parent="1" source="ejWC1JuvyuzGTiNb9Fb2-89" target="ejWC1JuvyuzGTiNb9Fb2-88">
          <mxGeometry width="160" relative="1" as="geometry">
            <mxPoint x="615" y="800" as="sourcePoint" />
            <mxPoint x="613.1801948466054" y="761.2132034355966" as="targetPoint" />
          </mxGeometry>
        </mxCell>
        <mxCell id="ejWC1JuvyuzGTiNb9Fb2-92" value="" style="html=1;verticalAlign=bottom;labelBackgroundColor=none;endArrow=block;endFill=1;dashed=1;rounded=0;curved=1;exitX=1;exitY=0;exitDx=0;exitDy=0;entryX=0;entryY=0.5;entryDx=0;entryDy=0;" edge="1" parent="1" source="ejWC1JuvyuzGTiNb9Fb2-90" target="ejWC1JuvyuzGTiNb9Fb2-88">
          <mxGeometry width="160" relative="1" as="geometry">
            <mxPoint x="625" y="810" as="sourcePoint" />
            <mxPoint x="623.1801948466054" y="771.2132034355966" as="targetPoint" />
          </mxGeometry>
        </mxCell>
        <mxCell id="ejWC1JuvyuzGTiNb9Fb2-93" value="&quot;extend&quot;" style="text;html=1;strokeColor=none;fillColor=none;align=center;verticalAlign=middle;whiteSpace=wrap;rounded=0;fontSize=12;" vertex="1" parent="1">
          <mxGeometry x="468" y="777.5" width="51" height="15" as="geometry" />
        </mxCell>
        <mxCell id="ejWC1JuvyuzGTiNb9Fb2-94" value="&quot;extend&quot;" style="text;html=1;strokeColor=none;fillColor=none;align=center;verticalAlign=middle;whiteSpace=wrap;rounded=0;fontSize=12;" vertex="1" parent="1">
          <mxGeometry x="393" y="750" width="51" height="15" as="geometry" />
        </mxCell>
        <mxCell id="ejWC1JuvyuzGTiNb9Fb2-95" value="" style="endArrow=none;html=1;rounded=0;curved=1;entryX=0.5;entryY=0.5;entryDx=0;entryDy=0;entryPerimeter=0;exitX=1;exitY=0;exitDx=0;exitDy=0;" edge="1" parent="1" source="ejWC1JuvyuzGTiNb9Fb2-88" target="ejWC1JuvyuzGTiNb9Fb2-2">
          <mxGeometry width="50" height="50" relative="1" as="geometry">
            <mxPoint x="613.1801948466054" y="718.7867965644036" as="sourcePoint" />
            <mxPoint x="560.5" y="680" as="targetPoint" />
          </mxGeometry>
        </mxCell>
        <mxCell id="ejWC1JuvyuzGTiNb9Fb2-96" value="Перезачесть курс" style="ellipse;whiteSpace=wrap;html=1;" vertex="1" parent="1">
          <mxGeometry x="441" y="590" width="90" height="60" as="geometry" />
        </mxCell>
        <mxCell id="ejWC1JuvyuzGTiNb9Fb2-97" value="Отправить зачетку работнику администрации, чтобы курс был перезачтен" style="ellipse;whiteSpace=wrap;html=1;" vertex="1" parent="1">
          <mxGeometry x="290" y="630" width="134.5" height="60" as="geometry" />
        </mxCell>
        <mxCell id="ejWC1JuvyuzGTiNb9Fb2-98" value="" style="endArrow=none;html=1;rounded=0;curved=1;entryX=1;entryY=1;entryDx=0;entryDy=0;exitX=0.5;exitY=0.5;exitDx=0;exitDy=0;exitPerimeter=0;" edge="1" parent="1" source="ejWC1JuvyuzGTiNb9Fb2-2" target="ejWC1JuvyuzGTiNb9Fb2-96">
          <mxGeometry width="50" height="50" relative="1" as="geometry">
            <mxPoint x="613.1801948466054" y="718.7867965644036" as="sourcePoint" />
            <mxPoint x="560.5" y="680" as="targetPoint" />
          </mxGeometry>
        </mxCell>
        <mxCell id="ejWC1JuvyuzGTiNb9Fb2-100" value="" style="html=1;verticalAlign=bottom;labelBackgroundColor=none;endArrow=block;endFill=1;dashed=1;rounded=0;curved=1;exitX=1;exitY=0;exitDx=0;exitDy=0;entryX=0;entryY=0.5;entryDx=0;entryDy=0;" edge="1" parent="1" source="ejWC1JuvyuzGTiNb9Fb2-97" target="ejWC1JuvyuzGTiNb9Fb2-96">
          <mxGeometry width="160" relative="1" as="geometry">
            <mxPoint x="489.5" y="665" as="sourcePoint" />
            <mxPoint x="449.5" y="675" as="targetPoint" />
          </mxGeometry>
        </mxCell>
        <mxCell id="ejWC1JuvyuzGTiNb9Fb2-102" value="&quot;include&quot;" style="text;html=1;strokeColor=none;fillColor=none;align=center;verticalAlign=middle;whiteSpace=wrap;rounded=0;fontSize=12;" vertex="1" parent="1">
          <mxGeometry x="389" y="612.5" width="51" height="15" as="geometry" />
        </mxCell>
        <mxCell id="ejWC1JuvyuzGTiNb9Fb2-104" value="Создать расписание" style="ellipse;whiteSpace=wrap;html=1;" vertex="1" parent="1">
          <mxGeometry x="279.5" y="922.5" width="90" height="60" as="geometry" />
        </mxCell>
        <mxCell id="ejWC1JuvyuzGTiNb9Fb2-105" value="" style="endArrow=none;html=1;rounded=0;curved=1;exitX=0.5;exitY=0.5;exitDx=0;exitDy=0;exitPerimeter=0;entryX=1;entryY=1;entryDx=0;entryDy=0;" edge="1" parent="1" source="ejWC1JuvyuzGTiNb9Fb2-3" target="ejWC1JuvyuzGTiNb9Fb2-104">
          <mxGeometry width="50" height="50" relative="1" as="geometry">
            <mxPoint x="415" y="1010" as="sourcePoint" />
            <mxPoint x="513.2573334288697" y="978.7645047903688" as="targetPoint" />
          </mxGeometry>
        </mxCell>
        <mxCell id="ejWC1JuvyuzGTiNb9Fb2-106" value="" style="html=1;verticalAlign=bottom;labelBackgroundColor=none;endArrow=block;endFill=1;dashed=1;rounded=0;curved=1;exitX=0;exitY=1;exitDx=0;exitDy=0;" edge="1" parent="1" source="ejWC1JuvyuzGTiNb9Fb2-104" target="ejWC1JuvyuzGTiNb9Fb2-4">
          <mxGeometry width="160" relative="1" as="geometry">
            <mxPoint x="203.2573334288678" y="988.7354952096298" as="sourcePoint" />
            <mxPoint x="157.74266657113014" y="963.7645047903688" as="targetPoint" />
          </mxGeometry>
        </mxCell>
        <mxCell id="ejWC1JuvyuzGTiNb9Fb2-109" value="&quot;include&quot;" style="text;html=1;strokeColor=none;fillColor=none;align=center;verticalAlign=middle;whiteSpace=wrap;rounded=0;fontSize=12;" vertex="1" parent="1">
          <mxGeometry x="262" y="977.5" width="51" height="15" as="geometry" />
        </mxCell>
        <mxCell id="ejWC1JuvyuzGTiNb9Fb2-110" value="Утвердить расписание на кафедрах" style="ellipse;whiteSpace=wrap;html=1;" vertex="1" parent="1">
          <mxGeometry x="180" y="857.5" width="90" height="60" as="geometry" />
        </mxCell>
        <mxCell id="ejWC1JuvyuzGTiNb9Fb2-111" value="" style="html=1;verticalAlign=bottom;labelBackgroundColor=none;endArrow=block;endFill=1;dashed=1;rounded=0;curved=1;exitX=0;exitY=0;exitDx=0;exitDy=0;entryX=1;entryY=1;entryDx=0;entryDy=0;" edge="1" parent="1" source="ejWC1JuvyuzGTiNb9Fb2-104" target="ejWC1JuvyuzGTiNb9Fb2-110">
          <mxGeometry width="160" relative="1" as="geometry">
            <mxPoint x="195.25733342886974" y="988.7354952096312" as="sourcePoint" />
            <mxPoint x="168.7426665711322" y="956.2645047903702" as="targetPoint" />
          </mxGeometry>
        </mxCell>
        <mxCell id="ejWC1JuvyuzGTiNb9Fb2-112" value="&quot;include&quot;" style="text;html=1;strokeColor=none;fillColor=none;align=center;verticalAlign=middle;whiteSpace=wrap;rounded=0;fontSize=12;" vertex="1" parent="1">
          <mxGeometry x="239" y="922.5" width="51" height="15" as="geometry" />
        </mxCell>
        <mxCell id="ejWC1JuvyuzGTiNb9Fb2-113" value="Добавить время занятий" style="ellipse;whiteSpace=wrap;html=1;" vertex="1" parent="1">
          <mxGeometry x="59.5" y="1040" width="90" height="60" as="geometry" />
        </mxCell>
        <mxCell id="ejWC1JuvyuzGTiNb9Fb2-114" value="" style="html=1;verticalAlign=bottom;labelBackgroundColor=none;endArrow=block;endFill=1;dashed=1;rounded=0;curved=1;exitX=0;exitY=1;exitDx=0;exitDy=0;entryX=1;entryY=0;entryDx=0;entryDy=0;" edge="1" parent="1" source="ejWC1JuvyuzGTiNb9Fb2-4" target="ejWC1JuvyuzGTiNb9Fb2-113">
          <mxGeometry width="160" relative="1" as="geometry">
            <mxPoint x="182" y="1009.9999999999998" as="sourcePoint" />
            <mxPoint x="121" y="1002.4999999999998" as="targetPoint" />
          </mxGeometry>
        </mxCell>
      </root>
    </mxGraphModel>
  </diagram>
</mxfile>
